<?xml version="1.0" encoding="UTF-8"?>
<svg id="Ebene_2" data-name="Ebene 2" xmlns="http://www.w3.org/2000/svg" xmlns:xlink="http://www.w3.org/1999/xlink" viewBox="0 0 3280.335622 1243.2912">
  <defs>
    <style>
      .cls-1 {
        fill: url(#_óďĺđěßăęŕß_ĺđíŕß_âčíüĺňęŕ);
      }

      .cls-2 {
        fill: #fff12a;
      }

      .cls-3 {
        fill: #739cd2;
      }

      .cls-4 {
        fill: #fff;
      }

      .cls-5 {
        fill: #3d3d3d;
      }

      .cls-6 {
        fill: #db2828;
      }

      .cls-7 {
        fill: url(#_óďĺđěßăęŕß_ĺđíŕß_âčíüĺňęŕ-2);
      }

      .cls-8 {
        fill: none;
        stroke: #3d3d3d;
        stroke-miterlimit: 10;
        stroke-width: 18px;
      }

      .cls-9 {
        fill: #676767;
      }

      .cls-10 {
        fill: #1d1d1b;
      }

      .cls-11 {
        fill: #9dbde4;
      }

      .cls-12 {
        fill: #ededed;
      }
    </style>
    <radialGradient id="_óďĺđěßăęŕß_ĺđíŕß_âčíüĺňęŕ" data-name="‘óďĺđěßăęŕß ÷ĺđíŕß âčíüĺňęŕ" cx="2292.831172" cy="694.27625" fx="2292.831172" fy="694.27625" r="272.705788" gradientUnits="userSpaceOnUse">
      <stop offset=".574443" stop-color="#161412"/>
      <stop offset=".797713" stop-color="#161412"/>
      <stop offset="1" stop-color="#161412"/>
    </radialGradient>
    <radialGradient id="_óďĺđěßăęŕß_ĺđíŕß_âčíüĺňęŕ-2" data-name="‘óďĺđěßăęŕß ÷ĺđíŕß âčíüĺňęŕ" cx="1640.032022" cy="318.1225" fx="1640.032022" fy="318.1225" r="468.28978" gradientTransform="translate(1958.154522 -1321.909522) rotate(90)" xlink:href="#_óďĺđěßăęŕß_ĺđíŕß_âčíüĺňęŕ"/>
  </defs>
  <g id="_ëîé_1" data-name="‘ëîé_1">
    <g>
      <g>
        <path class="cls-2" d="m2844.541522,1204.3737c0,6.7098-.0561,13.4114-.1687,20.0971H435.962722c-.1123-6.6857-.1686-13.3873-.1686-20.0971C435.794122,539.212,975.006122,0,1640.167922,0s1204.3736,539.212,1204.3736,1204.3737Z"/>
        <path class="cls-4" d="m718.906622,1182.2601h-.0532c-2.4645-.0293-4.4383-2.0505-4.4094-4.5143.1248-10.635.4345-21.4003.9203-31.9974.113-2.4619,2.1865-4.3729,4.6618-4.2534,2.4616.1133,4.3654,2.2005,4.2528,4.6617-.4812,10.4963-.7881,21.1594-.9116,31.6937-.0286,2.4464-2.0209,4.4097-4.4607,4.4097Zm1842.3216-11.2601c-2.4152,0-4.4016-1.9284-4.4589-4.3561-.2496-10.5237-.6847-21.1837-1.2935-31.685-.1425-2.46,1.7361-4.5702,4.1962-4.7128,2.4675-.1512,4.5702,1.7367,4.7128,4.1962.6144,10.6027,1.0539,21.3654,1.306,31.9899.0585,2.4638-1.8911,4.5081-4.3549,4.5666-.0362.0006-.0722.0012-.1077.0012Zm-1838.2923-65.0742c-.1401,0-.2811-.0063-.4233-.02-2.4535-.2303-4.2553-2.4065-4.0243-4.8603.9962-10.5878,2.1899-21.2926,3.5478-31.8163.3153-2.4445,2.5509-4.1662,4.9963-3.8544,2.4439.3156,4.1697,2.5522,3.8541,4.996-1.3448,10.4229-2.5269,21.0244-3.5135,31.5107-.2176,2.3112-2.1613,4.0443-4.4371,4.0443Zm1833.3405-11.211c-2.2522,0-4.1875-1.7006-4.4315-3.9907-1.1142-10.4689-2.4252-21.0555-3.8973-31.464-.3455-2.4401,1.3532-4.6978,3.7927-5.0427,2.4439-.3473,4.6973,1.3533,5.0434,3.7928,1.4858,10.51,2.8104,21.1992,3.9353,31.7696.2608,2.4507-1.5145,4.6487-3.9646,4.9096-.1606.0167-.32.0254-.478.0254Zm-1823.0331-64.5345c-.2608,0-.5248-.023-.7903-.0703-2.4255-.4333-4.0408-2.7514-3.6076-5.1772,1.8694-10.4608,3.9478-21.03,6.1778-31.4148.5174-2.4091,2.8896-3.9428,5.2995-3.4256,2.4097.5173,3.9431,2.8902,3.4259,5.2993-2.2089,10.284-4.2671,20.751-6.1181,31.111-.3862,2.16-2.2671,3.6776-4.3872,3.6776Zm1811.8004-11.0771c-2.0984,0-3.9684-1.4864-4.3773-3.6235-1.9796-10.3419-4.1663-20.7827-6.5-31.0325-.5472-2.4028.9574-4.7937,3.3601-5.3409,2.4003-.5472,4.7932.9567,5.3409,3.3602,2.3568,10.3493,4.5647,20.8923,6.5635,31.3357.4631,2.4202-1.1229,4.7576-3.5438,5.2207-.2826.0542-.5652.0803-.8434.0803Zm-1795.2297-63.551c-.3803,0-.7665-.0492-1.1512-.1519-2.3811-.6337-3.7975-3.0782-3.1632-5.4598,2.733-10.2609,5.6867-20.621,8.7783-30.7904.7164-2.358,3.2098-3.6882,5.5665-2.9711,2.358.7164,3.6882,3.2089,2.9714,5.5668-3.0613,10.0712-5.9864,20.3303-8.6929,30.4917-.5317,1.9963-2.3362,3.3147-4.3089,3.3147Zm1777.7423-10.8648c-1.9515,0-3.7436-1.2904-4.2945-3.2618-2.8354-10.1415-5.8863-20.3633-9.0683-30.3815-.7458-2.3486.5533-4.8579,2.9026-5.6036,2.3486-.747,4.8572.554,5.6029,2.902,3.2126,10.1172,6.2939,20.4392,9.1567,30.6803.6636,2.3729-.722,4.8348-3.0955,5.4984-.4022.1126-.8062.1662-1.2039.1662Zm-1754.9591-62.2264c-.4999,0-1.0078-.0847-1.5052-.2627-2.32-.831-3.5266-3.3857-2.6953-5.7057,3.5936-10.0282,7.4147-20.1317,11.3569-30.0297.9119-2.2895,3.5067-3.4069,5.7965-2.4943,2.2892.9119,3.4059,3.5064,2.4943,5.7959-3.9042,9.8022-7.688,19.8074-11.247,29.7385-.6527,1.8226-2.3695,2.958-4.2002,2.958Zm1731.3166-10.4727c-1.8108,0-3.5139-1.1104-4.1825-2.9069-3.667-9.8539-7.5612-19.7862-11.5744-29.5188-.9399-2.2782.145-4.8864,2.4233-5.8264,2.2802-.9374,4.8871.1463,5.8258,2.4239,4.0537,9.8291,7.9865,19.8579,11.689,29.8089.8596,2.3093-.3162,4.8783-2.6257,5.738-.5129.1905-1.0389.2813-1.5555.2813Zm-1702.4739-60.5133c-.6191,0-1.2481-.1295-1.8485-.4033-2.2421-1.0228-3.231-3.669-2.2085-5.9111,4.4168-9.6859,9.0655-19.4277,13.8175-28.9554,1.0996-2.2054,3.7782-3.1025,5.9842-2.0013,2.2055,1.0993,3.1015,3.7791,2.0016,5.9839-4.706,9.4356-9.3098,19.0835-13.6837,28.6753-.7488,1.6421-2.3685,2.6119-4.0626,2.6119Zm1672.8829-9.8744c-1.675,0-3.2804-.948-4.0405-2.564-4.4663-9.4941-9.1623-19.0436-13.9585-28.3846-1.1255-2.1923-.2608-4.8815,1.9315-6.0075,2.1925-1.1261,4.8809-.2609,6.0076,1.9315,4.843,9.4319,9.585,19.0754,14.0943,28.6622,1.0489,2.2298.0915,4.8877-2.1382,5.9366-.6138.2888-1.26.4258-1.8962.4258Zm-1638.2325-58.4162c-.7392,0-1.4887-.1837-2.179-.5715-2.1491-1.2057-2.9141-3.9253-1.7081-6.0741,5.2081-9.2831,10.6485-18.5985,16.1703-27.6874,1.2791-2.1058,4.0252-2.7762,6.1302-1.4964,2.1058,1.2792,2.7759,4.0237,1.4964,6.1302-5.4685,9.001-10.8567,18.2262-16.0143,27.4197-.8186,1.4584-2.3343,2.2795-3.8955,2.2795Zm1602.9123-9.2227c-1.5431,0-3.0439-.8011-3.87-2.2347-5.2475-9.1044-10.7241-18.2387-16.2766-27.1489-1.3035-2.091-.6648-4.8429,1.4268-6.1464,2.0908-1.3035,4.8435-.6642,6.1463,1.4267,5.6073,8.9968,11.1368,18.2194,16.4348,27.4129,1.2306,2.1351.4973,4.8628-1.6378,6.0941-.7015.404-1.4678.5963-2.2235.5963Zm-1562.7214-55.9169c-.86,0-1.7287-.2484-2.4943-.7656-2.0418-1.3801-2.5783-4.1539-1.1986-6.195,5.9497-8.8038,12.1403-17.6312,18.4003-26.2376,1.4497-1.9932,4.2406-2.4333,6.2329-.9841,1.9931,1.4497,2.4336,4.2403.9838,6.2329-6.1999,8.5242-12.3307,17.2664-18.2231,25.9848-.8622,1.2761-2.269,1.9646-3.701,1.9646Zm1521.8904-8.5996c-1.415,0-2.8062-.671-3.6721-1.9222-5.9826-8.6401-12.1988-17.2963-18.4771-25.7272-1.4722-1.9764-1.0626-4.7719.9138-6.2435,1.977-1.4722,4.7713-1.0632,6.2435.9138,6.3394,8.5124,12.6164,17.2527,18.6564,25.9768,1.4031,2.0256.8976,4.8055-1.1286,6.208-.7744.5366-1.6595.7943-2.5359.7943Zm-1476.4613-52.9595c-.9814,0-1.969-.3218-2.7932-.9842-1.9206-1.5443-2.226-4.3523-.6819-6.2733,6.6594-8.284,13.5549-16.5655,20.4949-24.6148,1.6098-1.8662,4.4265-2.0741,6.2933-.4657,1.8662,1.6098,2.0748,4.4271.4654,6.2934-6.8736,7.9714-13.7031,16.1739-20.2986,24.3782-.8814,1.0968-2.175,1.6664-3.4799,1.6664Zm1430.4137-7.9958c-1.2884,0-2.5664-.5546-3.4485-1.6278-6.6842-8.1277-13.5974-16.2455-20.5475-24.1274-1.6303-1.8481-1.4529-4.668.3953-6.2977,1.8487-1.6302,4.6686-1.4522,6.2976.3954,7.0179,7.959,13.9978,16.1552,20.7467,24.3614,1.5656,1.903,1.2917,4.7153-.6119,6.2803-.8303.6828-1.8344,1.0158-2.8317,1.0158Zm-1380.0771-49.5794c-1.1037,0-2.2088-.4071-3.0722-1.227-1.7869-1.6968-1.8594-4.521-.1622-6.3076,7.3163-7.7025,14.8674-15.3839,22.4439-22.8307,1.7573-1.7287,4.5827-1.7025,6.3097.0541,1.7275,1.7579,1.7032,4.5828-.0544,6.3101-7.5037,7.3752-14.9828,14.9832-22.2291,22.6117-.8771.9238-2.0552,1.3894-3.2357,1.3894Zm1329.1382-7.3964c-1.164,0-2.3268-.4525-3.202-1.3532-7.3266-7.5451-14.8892-15.0697-22.4766-22.3645-1.7766-1.7076-1.832-4.5323-.1239-6.3089,1.7075-1.7754,4.5323-1.8326,6.3089-.1239,7.6609,7.3646,15.2962,14.962,22.6938,22.5799,1.7168,1.7685,1.6757,4.5927-.0921,6.3101-.8671.8416-1.9882,1.2605-3.1081,1.2605Zm-1274.2499-45.8122c-1.2272,0-2.4492-.5029-3.3306-1.4908-1.6409-1.8388-1.4806-4.6593.3579-6.3001,7.9267-7.0739,16.0812-14.1036,24.2373-20.8936,1.8945-1.5761,4.7078-1.3191,6.2839.5745,1.5768,1.8939,1.3194,4.7072-.5742,6.284-8.0779,6.7246-16.1543,13.6871-24.0051,20.6932-.8506.7594-1.912,1.1328-2.9692,1.1328Zm1218.7657-6.7962c-1.0409,0-2.086-.3623-2.932-1.0999-7.9347-6.9251-16.0955-13.8029-24.2556-20.4442-1.911-1.5556-2.1999-4.3661-.6442-6.2774,1.5562-1.911,4.3667-2.1992,6.277-.644,8.2392,6.7054,16.479,13.6504,24.4903,20.6415,1.8569,1.6204,2.0487,4.439.4283,6.2958-.8827,1.0109-2.1202,1.5282-3.3638,1.5282Zm-1159.7053-41.687c-1.3526,0-2.6887-.6125-3.5662-1.7756-1.4836-1.9676-1.0912-4.7654.8765-6.2494,8.4751-6.3907,17.1771-12.7208,25.8645-18.8136,2.0171-1.4159,4.7999-.9266,6.2151,1.0909,1.4149,2.0175.9266,4.7999-1.0909,6.2152-8.6039,6.0343-17.2222,12.3033-25.6158,18.6327-.8045.6067-1.7479.8998-2.6832.8998Zm1100.0472-6.1837c-.9188,0-1.8463-.2829-2.6431-.8699-8.4782-6.246-17.1829-12.4297-25.8728-18.3791-2.033-1.3922-2.5528-4.1691-1.1609-6.2024,1.3924-2.0343,4.1694-2.5534,6.2024-1.161,8.7745,6.0073,17.5639,12.2511,26.1249,18.5578,1.9839,1.4616,2.4072,4.255.9456,6.2388-.8746,1.1874-2.2267,1.8158-3.5961,1.8158Zm-1037.2176-37.239c-1.4799,0-2.9275-.7358-3.7762-2.0797-1.3163-2.0835-.6941-4.8395,1.3893-6.1555,8.9703-5.6658,18.1606-11.2513,27.3151-16.6009,2.1277-1.2441,4.8604-.5267,6.1035,1.601,1.2434,2.1276.5266,4.8603-1.601,6.1034-9.0665,5.2983-18.1678,10.8299-27.0519,16.4413-.7398.4672-1.5643.6904-2.3788.6904Zm973.7805-5.5538c-.7981,0-1.606-.2142-2.3356-.6633-8.9674-5.523-18.1596-10.9665-27.3214-16.1799-2.1419-1.2188-2.8901-3.9427-1.6713-6.0847,1.2182-2.141,3.9428-2.8905,6.0848-1.6714,9.2507,5.2641,18.5325,10.7605,27.5877,16.3377,2.0984,1.2923,2.7514,4.0405,1.4591,6.1386-.8428,1.3688-2.3056,2.123-3.8033,2.123Zm-907.6113-32.4998c-1.6104,0-3.165-.874-3.9605-2.4006-1.1388-2.1856-.2907-4.8803,1.8948-6.0191,9.4054-4.9014,19.0202-9.7023,28.5782-14.2692,2.2238-1.0638,4.8868-.121,5.9497,2.1022,1.0625,2.2234.1213,4.8874-2.1022,5.9497-9.4654,4.5226-18.9876,9.2771-28.3017,14.1312-.6586.343-1.3636.5058-2.0583.5058Zm840.8121-4.8986c-.6779,0-1.3657-.155-2.0118-.4822-9.4114-4.7653-19.0306-9.4278-28.5907-13.8573-2.2359-1.0358-3.2082-3.6882-2.1724-5.9242,1.0352-2.2363,3.6882-3.2092,5.9248-2.1727,9.6528,4.4731,19.366,9.1809,28.8695,13.9927,2.1986,1.1133,3.0781,3.7978,1.9651,5.9964-.7862,1.5525-2.3554,2.4473-3.9845,2.4473Zm-771.7586-27.5106c-1.7436,0-3.3997-1.0284-4.1165-2.737-.9533-2.2728.1161-4.8878,2.3885-5.8408,9.7717-4.0991,19.7448-8.0805,29.6419-11.8334,2.3039-.8758,4.8803.2857,5.7543,2.5898.8736,2.3042-.2861,4.8803-2.5902,5.7543-9.801,3.7165-19.6772,7.6593-29.3537,11.7185-.564.2365-1.1488.3486-1.7243.3486Zm702.0382-4.2074c-.5584,0-1.1255-.1055-1.6745-.328-9.7724-3.9618-19.7539-7.8066-29.6675-11.4276-2.315-.8456-3.5058-3.4071-2.6605-5.7221.8453-2.3141,3.4081-3.5068,5.7219-2.6602,10.0107,3.6565,20.0906,7.5392,29.9588,11.5396,2.2838.9259,3.3844,3.5276,2.4588,5.8114-.7034,1.7346-2.3736,2.7869-4.137,2.7869Zm-630.4646-22.3626c-1.8818,0-3.6313-1.1999-4.2432-3.0863-.7606-2.3439.5232-4.8607,2.8675-5.6213,10.1013-3.2768,20.4043-6.4216,30.6221-9.3469,2.3691-.6797,4.8395.6925,5.5176,3.0613.6782,2.3692-.6925,4.8395-3.0613,5.5178-10.1188,2.8973-20.3216,6.0115-30.3248,9.2565-.4576.1482-.9216.2189-1.3779.2189Zm558.2934-3.4299c-.4389,0-.8845-.0651-1.3253-.2023-10.0474-3.1218-20.2885-6.1097-30.4387-8.8797-2.3773-.6487-3.7791-3.1022-3.1298-5.4791.6492-2.3776,3.1049-3.7772,5.479-3.1301,10.2498,2.7974,20.5918,5.8142,30.7376,8.9668,2.353.7314,3.6682,3.2319,2.9368,5.5852-.5944,1.9122-2.3573,3.1392-4.2596,3.1392Zm-449.1341-29.1499c.4784,2.4174-1.0937,4.7648-3.5114,5.2429-10.3223,2.0414-20.7488,4.2923-30.9909,6.691-.342.08-.6844.1186-1.0214.1186-2.0253,0-3.8585-1.3881-4.3406-3.4455-.5618-2.3993.9278-4.7999,3.3271-5.362m411.7852,6.2914c-.3194,0-.6431-.0346-.968-.1065-10.2684-2.271-20.7224-4.3931-31.0724-6.3076-2.4233-.4481-4.0237-2.7759-3.5762-5.1992.4488-2.423,2.7745-4.0247,5.1996-3.5759,10.4509,1.9331,21.0076,4.0761,31.3762,6.3699,2.4066.5319,3.9254,2.9138,3.3932,5.32-.4606,2.0816-2.3057,3.4993-4.3524,3.4993Zm-335.6821-11.7963c-2.1759,0-4.0807-1.5936-4.4084-3.8105-.3601-2.4377,1.3243-4.706,3.7619-5.0661,10.5026-1.5519,21.1834-2.9415,31.746-4.1308,2.4455-.2764,4.6571,1.4862,4.9332,3.9347.2757,2.4489-1.4858,4.6574-3.9347,4.9331-10.4608,1.1778-21.0387,2.5544-31.4404,4.091-.2209.0327-.4407.0486-.6576.0486Zm260.4197-1.5876c-.1992,0-.4003-.0134-.6032-.0408-10.421-1.4087-21.0157-2.6552-31.4895-3.7041-2.4513-.2459-4.2403-2.4326-3.9945-4.8846.2453-2.452,2.4315-4.236,4.884-3.9951,10.5753,1.0594,21.2727,2.3178,31.7952,3.7402,2.4419.3302,4.1544,2.5773,3.8239,5.0194-.3026,2.2393-2.2173,3.865-4.4159,3.865Zm-184.4009-6.4437c-2.3343,0-4.2973-1.8145-4.4483-4.1765-.1578-2.4595,1.7081-4.5809,4.1675-4.7381,10.589-.6788,21.349-1.1833,31.9806-1.5005,2.471-.0625,4.5195,1.8644,4.5927,4.3272.0738,2.4632-1.8637,4.5196-4.3269,4.5927-10.5302.314-21.1877.8142-31.6759,1.4862-.0974.0062-.1939.009-.2897.009Zm108.2863-.6558c-.0779,0-.1563-.0019-.2347-.0059-10.4907-.5443-21.152-.9147-31.6875-1.1014-2.4637-.044-4.4258-2.0767-4.3822-4.5405.0436-2.4369,2.0324-4.3829,4.4594-4.3829.0274,0,.0542.0003.081.0007,10.637.1886,21.4003.5627,31.9911,1.112,2.4614.1279,4.3525,2.2263,4.2249,4.687-.1233,2.3823-2.0934,4.231-4.452,4.231Z"/>
      </g>
      <g>
        <circle class="cls-8" cx="899.953547" cy="254.637525" r="202.581162" transform="translate(83.53437 710.94486) rotate(-45)"/>
        <line class="cls-8" x1="899.953522" y1="52.0564" x2="899.953522" y2="457.2187"/>
        <ellipse class="cls-8" cx="899.953547" cy="254.637525" rx="128.715425" ry="202.581175"/>
        <line class="cls-8" x1="697.372422" y1="254.6375" x2="1102.534722" y2="254.6375"/>
        <line class="cls-8" x1="723.485622" y1="154.8558" x2="1077.315722" y2="154.8558"/>
        <line class="cls-8" x1="723.038522" y1="354.4193" x2="1076.868622" y2="354.4193"/>
      </g>
      <g>
        <g>
          <rect class="cls-10" x="154.725822" y="1216.9283" width="2986.8185" height="24.3646" rx="11.3242" ry="11.3242"/>
          <rect class="cls-10" x="0" y="1216.9283" width="118.284822" height="24.3646" rx="11.3243" ry="11.3243"/>
          <path class="cls-10" d="m3265.589622,1243.2912h-82.4273c-8.144,0-14.746-5.9015-14.746-13.1815h0c0-7.2798,6.602-13.1814,14.746-13.1814h82.4273c8.144,0,14.746,5.9016,14.746,13.1814h0c0,7.28-6.602,13.1815-14.746,13.1815Z"/>
        </g>
        <g>
          <rect class="cls-5" x="937.347622" y="263.3308" width="1405.3689" height="869.2134" rx="46.0648" ry="46.0648"/>
          <rect class="cls-4" x="977.837922" y="308.7238" width="1324.3864" height="771.1014"/>
          <rect class="cls-10" x="977.836922" y="308.7265" width="18.792" height="771.0995"/>
          <g>
            <polygon class="cls-12" points="1491.888922 327.5185 996.628522 822.7978 996.628522 1023.4856 1692.644622 327.4696 1491.888922 327.5185"/>
            <polygon class="cls-12" points="2302.224322 308.7238 2302.224322 501.1476 1723.546822 1079.8252 1275.194722 1079.8252 2037.137422 317.8826 2037.137422 308.7238 2302.224322 308.7238"/>
            <polygon class="cls-12" points="2302.224322 564.7413 2302.224322 687.1354 1909.534522 1079.8252 1787.140522 1079.8252 2302.224322 564.7413"/>
          </g>
          <rect class="cls-1" x="2283.435222" y="308.7265" width="18.7919" height="771.0995"/>
          <rect class="cls-7" x="1630.636022" y="-344.0726" width="18.792" height="1324.3902" transform="translate(1321.909522 1958.154522) rotate(-90)"/>
          <path class="cls-5" d="m814.775322,1141.9499h1650.785v34.3001c0,22.450965-18.227335,40.6783-40.6783,40.6783H855.453622c-22.450965,0-40.6783-18.227335-40.6783-40.6783v-34.3001h0Z"/>
          <path class="cls-3" d="m2373.707622,1125.3726H906.356522c-9.1554,0-16.5774,7.4219-16.5774,16.5773h1500.5058c0-9.1554-7.4219-16.5773-16.5773-16.5773Z"/>
          <path class="cls-11" d="m1664.454922,1142.1091h-172.566l12.8152,16.7923c3.6045,4.7232,9.2061,7.4947,15.1476,7.4947h240.6322c5.9415,0,11.5431-2.7715,15.1477-7.4947l12.8152-16.7923h-123.9919Z"/>
        </g>
        <g>
          <path class="cls-6" d="m1498.398722,765.9699c-6.6737-3.0143-15.5877-4.5425-26.4942-4.5425h-6.9372v-158.8835c0-25.3266-11.3031-38.1684-33.5955-38.1684-7.0097,0-13.1006,2.3859-18.1032,7.0905-4.7023,4.4198-10.7609,11.607-18.0042,21.3575l-110.1574,147.3623c-3.0524,4.0241-5.617,7.4209-7.6978,10.1943-2.1087,2.8139-4.1625,5.7526-6.1035,8.7344-2.0202,3.1013-3.5585,6.1089-4.5715,8.9375-1.0436,2.9041-1.5728,5.824-1.5728,8.6792,0,10.7988,3.5435,19.4801,10.5311,25.8026,6.9271,6.2742,17.3445,9.4554,30.9628,9.4554h102.3454v36.6616c0,10.8546,2.5848,19.2414,7.6821,24.9274,5.1563,5.7518,11.9863,8.6683,20.3012,8.6683,8.4487,0,15.3116-2.8434,20.3979-8.452,5.0332-5.5546,7.5854-14.0139,7.5854-25.1437v-36.6616h10.6786c10.8991,0,19.2566-1.9741,24.8401-5.8676,5.8098-4.0497,8.7554-10.5112,8.7554-19.2053,0-10.6499-3.6479-17.6973-10.8427-20.9464Zm-89.398-117.2427v112.7002h-83.4095l83.4095-112.7002Z"/>
          <path class="cls-6" d="m1711.018722,593.9688c-8.9541-9.0925-19.4995-16.0989-31.3441-20.8248-11.8251-4.7148-25.1521-7.1054-39.6108-7.1054-21.9189,0-41.0716,5.3942-56.9257,16.0328-15.8547,10.6428-28.0963,26.2969-36.3962,46.558-4.7506,12.1537-8.2879,26.8567-10.5132,43.7011-2.2185,16.7704-3.3432,35.8806-3.3432,56.8005,0,16.2401,1.0208,31.547,3.0345,45.495,2.0176,13.9999,5.2354,26.9726,9.5812,38.6019,8.5552,21.3261,21.4819,38.2679,38.421,50.3547,16.9622,12.1084,36.4102,18.2479,57.8042,18.2479,18.5662,0,35.6939-4.5697,50.9065-13.5823,15.1914-9,27.7401-21.971,37.3073-38.5711,7.5588-13.4377,12.8108-28.6213,15.6108-45.1289,2.777-16.3881,4.185-36.2222,4.185-58.9509,0-41.9399-5.3767-74.8809-15.9827-97.9118-6.1693-13.3146-13.8183-24.6585-22.7346-33.7167Zm-22.2377,127.4712c0,26.5034-1.4584,48.2062-4.3347,64.5046-2.8359,16.0738-7.8007,28.564-14.7561,37.1249-6.8697,8.4545-16.1527,12.5643-28.3793,12.5643-11.8258,0-20.913-3.9497-27.7808-12.0748-6.9463-8.2139-11.9733-20.5937-14.9414-36.7956-3.0127-16.4267-4.5402-37.8451-4.5402-63.6603,0-37.9619,3.5562-66.3916,10.5702-84.5008,6.8697-17.742,18.7359-26.3669,36.2764-26.3669,12.0837,0,21.6473,3.931,28.4252,11.6832,6.9336,7.9368,11.9541,19.9274,14.9228,35.6382,3.0111,15.9597,4.5379,36.7802,4.5379,61.8832Z"/>
          <path class="cls-6" d="m2004.331122,765.9699c-6.6737-3.0143-15.5874-4.5425-26.4939-4.5425h-6.9375v-158.8835c0-25.3266-11.3031-38.1684-33.5955-38.1684-7.0094,0-13.1002,2.3859-18.1028,7.0905-4.7031,4.4205-10.762,11.6077-18.0046,21.3575l-110.1574,147.3623c-3.0524,4.0241-5.6167,7.4209-7.6981,10.1943-2.1084,2.8139-4.1622,5.7526-6.1032,8.7344-2.0202,3.1013-3.5585,6.1089-4.5715,8.9375-1.0436,2.9041-1.5728,5.824-1.5728,8.6792,0,10.7984,3.5435,19.4798,10.5308,25.8026,6.9274,6.2742,17.3451,9.4554,30.9635,9.4554h102.3453v36.6616c0,10.8546,2.5845,19.2414,7.6818,24.9274,5.1563,5.7518,11.9867,8.6683,20.3012,8.6683,8.4487,0,15.3116-2.8434,20.3982-8.452,5.0332-5.5543,7.5851-14.0136,7.5851-25.1437v-36.6616h10.679c10.899,0,19.2562-1.9741,24.8397-5.8676,5.8098-4.0497,8.7558-10.5112,8.7558-19.2053,0-10.6499-3.648-17.6973-10.8431-20.9464Zm-89.3977-117.2427v112.7002h-83.4098l83.4098-112.7002Z"/>
        </g>
      </g>
      <g>
        <path class="cls-9" d="m2656.658322,1153.5064v.0055c-13.148,13.148-34.467,13.148-47.615,0l-204.4164-204.4219-25.9748-25.9748c18.9109-12.4837,35.1314-28.7042,47.6095-47.6151l230.3967,230.3967c13.1479,13.148,13.1479,34.4616,0,47.6096Z"/>
        <path class="cls-5" d="m2436.619322,885.8524l53.2674,53.2728c-12.4781,18.9109-28.6931,35.1258-47.6041,47.6151h-.0054l-27.2924-27.298-25.975-25.975c18.911-12.4835,35.1315-28.7041,47.6095-47.6149Z"/>
        <g>
          <path class="cls-9" d="m2489.699022,774.9162c-.3615-8.6223-1.2651-17.1027-2.6784-25.4152-8.0027-47.2551-32.3337-88.9598-66.9846-119.0929-35.6575-31.0237-82.2413-49.8043-133.2138-49.8043-112.1486,0-203.0639,90.9153-203.0639,203.0703,0,7.764.4389,15.4248,1.2843,22.9628,2.659,23.6277,9.3709,46.0225,19.4325,66.4812v.0064c14.4437,29.4038,35.7995,54.7996,61.944,74.0773,4.2467,3.1365,8.6288,6.1118,13.1208,8.9128,31.1333,19.4066,67.9009,30.6235,107.2823,30.6235,43.9185,0,84.5842-13.9404,117.8021-37.6454,0,0,.0065,0,.0065-.0064,18.387-13.1141,34.4893-29.2166,47.61-47.6036v-.0065h.0063c13.1789-18.4773,23.3437-39.2522,29.7653-61.6084,5.1243-17.8448,7.8736-36.6965,7.8736-56.1937,0-2.9365-.0644-5.8537-.187-8.7579Zm-202.8768,175.6933c-36.5289,0-70.3147-11.7331-97.8017-31.6368-26.6802-19.31-47.4228-46.3322-58.9752-77.7883-6.5766-17.9288-10.1649-37.3033-10.1649-57.5103,0-7.6027.5098-15.089,1.4973-22.4207,8.3062-61.9052,50.5466-113.0649,107.3921-134.1496,18.0772-6.7056,37.6388-10.3714,58.0524-10.3714,7.3832,0,14.6502.4776,21.7817,1.4134,33.844,4.4016,64.5062,18.9486,88.8372,40.4914,34.5475,30.5849,56.3228,75.2649,56.3228,125.0369,0,2.5429-.058,5.0728-.1743,7.5833-.542,12.2558-2.4137,24.1633-5.4664,35.593-4.6726,17.5222-12.1268,33.902-21.8591,48.6491-12.4818,18.9098-28.7004,35.1347-47.6101,47.6165-4.6402,3.0591-9.442,5.8924-14.3921,8.4869-10.5714,5.5438-21.814,9.9906-33.5729,13.1787-13.9791,3.8013-28.6873,5.8279-43.8668,5.8279Z"/>
          <path class="cls-4" d="m2160.407822,802.0311c-8.6101,0-15.5901-6.9801-15.5901-15.5902,0-38.6703,15.0588-75.026,42.4031-102.3699,27.3438-27.3442,63.6997-42.403,102.3697-42.403,8.6102,0,15.5902,6.9801,15.5902,15.5903,0,8.6101-6.98,15.5902-15.5902,15.5902-30.3416,0-58.8673,11.8157-80.3221,33.2706-21.4549,21.4545-33.2703,49.9803-33.2703,80.3218,0,8.6101-6.9801,15.5902-15.5903,15.5902Z"/>
        </g>
      </g>
    </g>
  </g>
</svg>