<?xml version="1.0" encoding="UTF-8"?>
<svg id="Ebene_1" data-name="Ebene 1" xmlns="http://www.w3.org/2000/svg" viewBox="0 0 315.43 196.41">
  <defs>
    <style>
      .cls-1 {
        fill: #fff;
      }

      .cls-2 {
        fill: #ffe900;
      }
    </style>
  </defs>
  <path class="cls-2" d="m236.32,0s82.9,20.41,20.03,53.33c0,0,36.82-22.27-20.03-53.33Z"/>
  <path class="cls-2" d="m114.07,40.54c1.42-10.35,23.98-15.89,32.49-17.33,0,0,113.14-24.34,92.35,30.59,0,0,6.25-46.02-95.92-19.09,0,0-25.54,5.83-2.55,19.9,30.29,18.5,39.49,33.32,39.49,33.32,0,0-17.6-10.42-44.69-23.02-24.58-11.37-21.44-22-21.15-24.36h-.01Z"/>
  <path class="cls-2" d="m163.68,100.45s-10.56-9.47-31.61-14.61c0,0-33.48,64.09-19.59,93.33.04,0,.04.13.14.14,7.24,11.07,24.36,6.8,30.26-5.16,0,0,21.17-37.94,43.19-56.06,0,0-27.23,37.52-16.71,61.54,0,0,9.98,14.39,28.86-2.37,0,0,23.75-41.53,82.05-83.17,0,0-71.83,22.07-97.13,72.54,0,0,8.01-30.87,26.15-46.77-7.74-13.54-24.6-26.94-23.2-26.12,0,0-42.85,29.17-58.58,74.58,0,0,1.63-34.06,36.2-67.89h-.03Z"/>
  <path class="cls-2" d="m307.04,128.13c1.29,29.65-27.45,54.95-64.18,56.44-13.03.47-25.31-2.1-35.73-6.89,11.91,11.82,29.4,18.89,48.47,18.1,34.31-1.29,61.16-27.6,59.77-58.72-.82-18.14-11.04-33.92-26.19-43.65,10.57,9.09,17.28,21.17,17.87,34.72h-.01Z"/>
  <path class="cls-2" d="m107,113.91c-10.13-2.92-25.75-4.25-38.2-1.56-29,6.17-48.7,26.87-44.05,46.23,4.71,19.36,31.95,29.96,60.94,23.81,7.07-1.47,13.71-3.93,19.43-6.96-2.15,1.97-4.46,3.86-6.96,5.61-30.12,21.56-69.72,20.27-88.48-2.83C-9.04,155.05.2,118.8,30.34,97.14c30.17-21.6,68.02-21.26,91.37-14.41"/>
  <path class="cls-1" d="m245.5,2.71s32.5,13.14,30.53,23.95c0,0-3.42-10.08-30.53-23.95h0Z"/>
  <path class="cls-1" d="m163.35,21.94s71.79-13.66,75.32,15.49c0,0-.95-22.75-75.32-15.49Z"/>
  <path class="cls-1" d="m135.32,28.11s-31.25,4.73-16.17,24.77c0,0-10.26-15.28,16.17-24.77Z"/>
  <path class="cls-1" d="m129.34,43.19s-3.42,5,4.59,12.77c8.02,7.74,27.43,12.47,42.99,28.11,0,0-18.37-18.03-35.9-26.59-11.78-5.77-11.68-14.29-11.68-14.29Z"/>
  <path class="cls-1" d="m17.15,112.49s31.85-44.48,100.4-28.43l-2.48,5.6s1.29-3.91-12.1-5.6c0,0-43.23-8.72-85.82,28.43Z"/>
  <path class="cls-1" d="m22.34,156.68s5.37,45.84,74.98,22.31c0,0-68.33,33.01-74.98-22.31Z"/>
  <path class="cls-1" d="m133.18,87.92s14.8,3.26,26.99,12.46l-2.78,4.01s1.6-5.95-24.21-16.46h0Z"/>
  <path class="cls-1" d="m185.55,96.18s11.35,9.33,20.98,22.88l-3.05,3.39s.58-5.29-17.93-26.26h0Z"/>
  <path class="cls-1" d="m174.93,104.37s-22.52,18.07-41.74,52.31c0,0,33.24-46.49,41.74-52.31Z"/>
  <path class="cls-1" d="m189.94,158.23s23.3-36.55,77.74-59.5c0,0-54.33,30.12-77.74,59.5Z"/>
  <path class="cls-1" d="m212.77,179.97s43.87,20.81,76.99-11.76c0,0-27.48,38.79-76.99,11.76h0Z"/>
</svg>