<?xml version="1.0" encoding="UTF-8"?>
<svg id="Ebene_1" data-name="Ebene 1" xmlns="http://www.w3.org/2000/svg" viewBox="0 0 385.7 214.21">
  <defs>
    <style>
      .cls-1 {
        fill: #fff;
      }

      .cls-2 {
        letter-spacing: -.01em;
      }

      .cls-3 {
        fill: #ffe900;
      }

      .cls-4 {
        letter-spacing: 0em;
      }

      .cls-5 {
        fill: #FFFFFF;
        font-family: FranklinGothic-Heavy, 'Franklin Gothic Heavy';
        font-size: 52.16px;
        font-weight: 800;
      }
    </style>
  </defs>
  <g>
    <path class="cls-3" d="m248.31,0s58.49,14.4,14.13,37.63c0,0,25.98-15.71-14.13-37.63Z"/>
    <path class="cls-3" d="m162.06,28.6c1-7.3,16.92-11.21,22.92-12.23,0,0,79.83-17.17,65.16,21.58,0,0,4.41-32.47-67.68-13.47,0,0-18.02,4.11-1.8,14.04,21.37,13.05,27.86,23.51,27.86,23.51,0,0-12.42-7.35-31.53-16.24-17.34-8.02-15.13-15.52-14.92-17.19Z"/>
    <path class="cls-3" d="m197.06,70.87s-7.45-6.68-22.3-10.31c0,0-23.62,45.22-13.82,65.85.03,0,.03.09.1.1,5.11,7.81,17.19,4.8,21.35-3.64,0,0,14.94-26.77,30.47-39.55,0,0-19.21,26.47-11.79,43.42,0,0,7.04,10.15,20.36-1.67,0,0,16.76-29.3,57.89-58.68,0,0-50.68,15.57-68.53,51.18,0,0,5.65-21.78,18.45-33-5.46-9.55-17.36-19.01-16.37-18.43,0,0-30.23,20.58-41.33,52.62,0,0,1.15-24.03,25.54-47.9Z"/>
    <path class="cls-3" d="m298.21,90.4c.91,20.92-19.37,38.77-45.28,39.82-9.19.33-17.86-1.48-25.21-4.86,8.4,8.34,20.74,13.33,34.2,12.77,24.21-.91,43.15-19.47,42.17-41.43-.58-12.8-7.79-23.93-18.48-30.8,7.46,6.41,12.19,14.94,12.61,24.5Z"/>
    <path class="cls-3" d="m157.07,80.37c-7.15-2.06-18.17-3-26.95-1.1-20.46,4.35-34.36,18.96-31.08,32.62,3.32,13.66,22.54,21.14,43,16.8,4.99-1.04,9.67-2.77,13.71-4.91-1.52,1.39-3.15,2.72-4.91,3.96-21.25,15.21-49.19,14.3-62.43-2-13.21-16.34-6.69-41.92,14.57-57.2,21.29-15.24,47.99-15,64.47-10.17"/>
    <path class="cls-1" d="m254.79,1.91s22.93,9.27,21.54,16.9c0,0-2.41-7.11-21.54-16.9Z"/>
    <path class="cls-1" d="m196.83,15.48s50.65-9.64,53.14,10.93c0,0-.67-16.05-53.14-10.93Z"/>
    <path class="cls-1" d="m177.05,19.83s-22.05,3.34-11.41,17.48c0,0-7.24-10.78,11.41-17.48Z"/>
    <path class="cls-1" d="m172.83,30.47s-2.41,3.53,3.24,9.01c5.66,5.46,19.35,8.8,30.33,19.83,0,0-12.96-12.72-25.33-18.76-8.31-4.07-8.24-10.08-8.24-10.08Z"/>
    <path class="cls-1" d="m93.68,79.37s22.47-31.38,70.84-20.06l-1.75,3.95s.91-2.76-8.54-3.95c0,0-30.5-6.15-60.55,20.06Z"/>
    <path class="cls-1" d="m97.34,110.55s3.79,32.34,52.9,15.74c0,0-48.21,23.29-52.9-15.74Z"/>
    <path class="cls-1" d="m175.54,62.03s10.44,2.3,19.04,8.79l-1.96,2.83s1.13-4.2-17.08-11.61Z"/>
    <path class="cls-1" d="m212.49,67.86s8.01,6.58,14.8,16.14l-2.15,2.39s.41-3.73-12.65-18.53Z"/>
    <path class="cls-1" d="m205,73.64s-15.89,12.75-29.45,36.91c0,0,23.45-32.8,29.45-36.91Z"/>
    <path class="cls-1" d="m215.59,111.64s16.44-25.79,54.85-41.98c0,0-38.33,21.25-54.85,41.98Z"/>
    <path class="cls-1" d="m231.7,126.98s30.95,14.68,54.32-8.3c0,0-19.39,27.37-54.32,8.3Z"/>
  </g>
  <text class="cls-5" transform="translate(3.23 198.55) scale(1.05 .98) skewX(-10.85)"><tspan x="0" y="0">cams-</tspan><tspan class="cls-2" x="144.45" y="0">w</tspan><tspan class="cls-4" x="182.45" y="0">orld.de</tspan></text>
</svg>