<?xml version="1.0" encoding="UTF-8"?>
<svg id="Ebene_1" data-name="Ebene 1" xmlns="http://www.w3.org/2000/svg" viewBox="0 0 207.71 138.5">
  <defs>
    <style>
      .cls-1 {
        fill: #fff;
      }

      .cls-2 {
        fill: #FFDE00;
      }
    </style>
  </defs>
  <g>
    <path class="cls-2" d="m166.27,0s58.49,14.4,14.13,37.63c0,0,25.98-15.71-14.13-37.63Z"/>
    <path class="cls-2" d="m80.02,28.6c1-7.3,16.92-11.21,22.92-12.23,0,0,79.83-17.17,65.16,21.58,0,0,4.41-32.47-67.68-13.47,0,0-18.02,4.11-1.8,14.04,21.37,13.05,27.86,23.51,27.86,23.51,0,0-12.42-7.35-31.53-16.24-17.34-8.02-15.13-15.52-14.92-17.19Z"/>
    <path class="cls-2" d="m128.01,73.65s-23.68-9.63-28.26-11.69c-8.23-3.7-19.34-6.95-13.87-4.82,3.97,1.55,17.79,9.34,18.99,13.99,2.4,9.26-19.74,45.48-15.11,57.46.03,0-.03-.06,0,0,2.57,5.09,15.56.47,17.86-.42,14.85-5.73,23.5-11.24,33.59-17.03-9.06,3.9-37.51,20.67-40.07,11.02-.22-.82-.23-1.67-.15-2.51.48-5.08,12.73-48.26,27.02-46Z"/>
    <path class="cls-2" d="m201.8,88.26c.91,20.92-19.37,38.77-45.28,39.82-9.19.33-17.86-1.48-25.21-4.86,8.4,8.34,20.74,13.33,34.2,12.77,24.21-.91,43.15-19.47,42.17-41.43-.58-12.8-7.79-23.93-18.48-30.8,7.46,6.41,12.19,14.94,12.61,24.5Z"/>
    <path class="cls-2" d="m64.62,77.32c8.83-10.43-11.67-9.98-25.68-3.36-20.71,9.78-24.76,24.2-21.47,37.86,3.32,13.66,22.54,21.14,43,16.8,4.99-1.04,9.67-2.77,13.71-4.91-1.52,1.39-3.15,2.72-4.91,3.96-21.25,15.21-49.19,14.3-62.43-2C-6.38,109.32.15,83.74,21.41,68.46c21.29-15.24,59.8-11.32,60.26-.32"/>
    <path class="cls-1" d="m172.75,1.91s22.93,9.27,21.54,16.9c0,0-2.41-7.11-21.54-16.9Z"/>
    <path class="cls-1" d="m114.79,15.48s50.65-9.64,53.14,10.93c0,0-.67-16.05-53.14-10.93Z"/>
    <path class="cls-1" d="m95.01,19.83s-22.05,3.34-11.41,17.48c0,0-7.24-10.78,11.41-17.48Z"/>
    <path class="cls-1" d="m90.79,30.47s-2.41,3.53,3.24,9.01c5.66,5.46,19.35,8.8,30.33,19.83,0,0-12.96-12.72-25.33-18.76-8.31-4.07-8.24-10.08-8.24-10.08Z"/>
    <path class="cls-1" d="m15.31,110.55s3.79,32.34,52.9,15.74c0,0-48.21,23.29-52.9-15.74Z"/>
    <path class="cls-1" d="m99.13,63.25s13.15,5.08,24.02,9.46l-4.7,2.64s-3.34-5.41-19.32-12.1Z"/>
    <path class="cls-1" d="m135.29,124.84s30.95,14.68,54.32-8.3c0,0-19.39,27.37-54.32,8.3Z"/>
    <path class="cls-2" d="m181.11,53.33c-19.08,7.09-37.27,5.59-40.56-3.37-1.13-3.19-.25-6.89,2.18-10.62-6.88,5.71-10.34,11.76-8.62,16.4,3.01,8.4,21.73,9.19,41.75,1.74,11.68-4.35,21.22-10.53,26.55-16.6-5.2,4.75-12.59,9.21-21.31,12.45Z"/>
    <path class="cls-1" d="m148.69,61.2s-20.05-.64-12.73-12.4c0,0-5.47,10.5,12.73,12.4Z"/>
    <path class="cls-1" d="m27.48,68.43s11.4-4.98,21.84-6.78c5.96-1.03,21.12-3.41,28.46,5.25l-5.04,2.79s1.35-7.58-21.81-6.43c-2.77.14-15.2,1.92-23.45,5.18Z"/>
  </g>
  <path class="cls-1" d="m90.88,118.99c-.08.71-2.29,14.39,12.78,9.46,0,0-17.03,7.57-12.78-9.46Z"/>
</svg>