<?xml version="1.0" encoding="UTF-8"?>
<svg id="Ebene_2" data-name="Ebene 2" xmlns="http://www.w3.org/2000/svg" viewBox="0 0 612.75 301.7">
  <defs>
    <style>
      .cls-1 {
        fill: #fff;
      }

      .cls-2 {
        fill: #ffe900;
      }
    </style>
  </defs>
  <g id="Ebene_1-2" data-name="Ebene 1">
    <g>
      <path class="cls-2" d="m387.41,0s85.46,21.04,20.65,54.98c0,0,37.96-22.96-20.65-54.98Z"/>
      <path class="cls-2" d="m261.38,41.79c1.46-10.67,24.72-16.38,33.49-17.86,0,0,116.64-25.09,95.2,31.53,0,0,6.45-47.44-98.89-19.68,0,0-26.33,6.01-2.62,20.51,31.23,19.07,40.7,34.35,40.7,34.35,0,0-18.15-10.74-46.08-23.73-25.34-11.71-22.1-22.68-21.8-25.12Z"/>
      <path class="cls-2" d="m312.52,103.55s-10.88-9.77-32.58-15.07c0,0-34.51,66.07-20.2,96.22.05,0,.05.13.15.15,7.47,11.41,25.12,7.02,31.19-5.31,0,0,21.84-39.12,44.52-57.79,0,0-28.07,38.68-17.23,63.44,0,0,10.28,14.83,29.75-2.44,0,0,24.49-42.82,84.59-85.75,0,0-74.05,22.75-100.14,74.79,0,0,8.26-31.83,26.95-48.22-7.98-13.95-25.37-27.77-23.92-26.92,0,0-44.17,30.08-60.39,76.89,0,0,1.68-35.11,37.32-69.99Z"/>
      <path class="cls-2" d="m460.32,132.09c1.32,30.56-28.3,56.65-66.16,58.18-13.43.49-26.1-2.17-36.84-7.1,12.28,12.18,30.31,19.47,49.97,18.66,35.38-1.32,63.05-28.45,61.62-60.53-.85-18.71-11.38-34.97-27.01-45.01,10.9,9.36,17.81,21.83,18.42,35.8Z"/>
      <path class="cls-2" d="m254.09,117.44c-10.45-3.02-26.56-4.38-39.37-1.61-29.89,6.35-50.21,27.71-45.41,47.66,4.85,19.95,32.93,30.9,62.83,24.54,7.3-1.52,14.13-4.05,20.03-7.18-2.22,2.03-4.61,3.97-7.18,5.79-31.05,22.22-71.87,20.9-91.22-2.92-19.31-23.88-9.77-61.26,21.29-83.58,31.1-22.26,70.13-21.92,94.2-14.86"/>
      <path class="cls-1" d="m396.87,2.79s33.5,13.55,31.48,24.7c0,0-3.51-10.39-31.48-24.7Z"/>
      <path class="cls-1" d="m312.18,22.62s74-14.08,77.65,15.96c0,0-.98-23.45-77.65-15.96Z"/>
      <path class="cls-1" d="m283.29,28.97s-32.22,4.88-16.67,25.54c0,0-10.58-15.76,16.67-25.54Z"/>
      <path class="cls-1" d="m277.12,44.53s-3.52,5.16,4.73,13.17c8.27,7.97,28.27,12.85,44.31,28.98,0,0-18.94-18.58-37.01-27.41-12.15-5.94-12.03-14.74-12.03-14.74Z"/>
      <path class="cls-1" d="m161.47,115.98s32.83-45.85,103.51-29.31l-2.56,5.77s1.33-4.04-12.47-5.77c0,0-44.57-8.99-88.48,29.31Z"/>
      <path class="cls-1" d="m166.82,161.53s5.53,47.25,77.3,23.01c0,0-70.45,34.03-77.3-23.01Z"/>
      <path class="cls-1" d="m281.09,90.64s15.26,3.36,27.81,12.84l-2.86,4.13s1.65-6.13-24.95-16.97Z"/>
      <path class="cls-1" d="m335.06,99.16s11.71,9.61,21.63,23.58l-3.15,3.49s.6-5.45-18.49-27.07Z"/>
      <path class="cls-1" d="m324.12,107.61s-23.22,18.62-43.04,53.93c0,0,34.26-47.93,43.04-53.93Z"/>
      <path class="cls-1" d="m339.59,163.13s24.02-37.68,80.15-61.34c0,0-56.01,31.06-80.15,61.34Z"/>
      <path class="cls-1" d="m363.14,185.54s45.22,21.45,79.37-12.13c0,0-28.33,39.99-79.37,12.13Z"/>
    </g>
    <g>
      <path class="cls-1" d="m.37,273.39c2.59-20.64,17.88-38.8,34.67-38.8,10.73,0,17.85,7.93,18.31,20.23l-8.8,4.54c-.7-7.35-4.57-13.21-12.1-13.21-11.54,0-21.41,13.04-23.06,26.17-1.66,13.21,5.45,17.83,12.76,17.83,8.72,0,15.89-6.6,20.31-15.52l6.93,3.88c-7.58,15.93-18.46,23.2-30,23.2-13.76,0-21.2-11.06-19.03-28.32Z"/>
      <path class="cls-1" d="m79.79,235.91h9.75l3.98,64.39h-8.88c-.49-5.61-.92-11.23-1.4-16.84h-20.37c-3.14,5.61-6.29,11.23-9.43,16.84h-8.78l35.13-64.39Zm2.61,35.66c-.46-6.69-.77-9.82-1.33-20.89h-.11c-3.03,5.53-7.37,13.37-11.51,20.89h12.95Z"/>
      <path class="cls-1" d="m115.06,235.91h10.4c1.85,15.03,3.69,30.13,5.47,45.24h.11c9.38-15.11,18.75-30.22,28.11-45.24h10.45l-15.57,64.39h-8.56l10.41-41.44h-.22c-8.56,13.79-17.18,27.66-25.79,41.44h-6.34l-4.92-41.44h-.16c-3.52,13.79-6.94,27.66-10.41,41.44h-8.56l15.57-64.39Z"/>
      <path class="cls-1" d="m165.9,282.63l8.72-3.88c-.23,9.16,4.09,11.81,9.02,11.81,5.96,0,10.89-3.88,11.5-8.75.63-5.04-3.59-6.77-7-8.09l-4.17-1.73c-4.12-1.65-11.04-5.28-9.69-16.02,1.38-10.98,10.76-21.38,22.08-21.38,9.7,0,14.11,7.51,13.93,15.03l-8.7,4.54c-.28-5.12-2.79-8.42-7.88-8.42s-9.59,3.47-10.12,7.68c-.59,4.71,3.91,6.85,7.14,8.26l4.77,2.15c3.91,1.65,10.53,4.54,9.21,15.03-1.43,11.39-11.27,22.87-23.62,22.87-9.21,0-15.67-6.77-15.21-19.07Z"/>
      <path class="cls-1" d="m212.97,270.25h20.31l-2.21,9.82h-20.31l2.21-9.82Z"/>
      <path class="cls-1" d="m243.29,235.91h9.53c-.27,15.52-.61,31.12-.99,47.06h.16c7.54-15.19,15.46-31.21,23.3-47.06h9.53c-.02,15.27.06,31.37.04,47.06h.11c7.81-16.43,14.96-31.54,22.38-47.06h9.48l-30.47,64.39h-10.45c-.19-14.03-.29-29.56-.1-44.91h-.11c-6.78,13.87-14.45,29.64-22.55,44.91h-10.51l.62-64.39Z"/>
      <path class="cls-1" d="m310.72,273.47c2.54-20.23,18.21-38.88,34.68-38.88,13.05,0,20.64,11.64,18.53,28.4-2.55,20.31-18.36,38.72-34.66,38.72-13,0-20.67-11.39-18.55-28.23Zm21.14,16.68c10.83,0,21.23-12.47,22.89-25.67,1.36-10.82-3.49-18.33-11.83-18.33-10.72,0-21.39,12.47-23.07,25.84-1.36,10.81,3.62,18.16,12.02,18.16Z"/>
      <path class="cls-1" d="m379.15,235.91h19.12c4.28,0,15,1.32,12.97,17.5-1.37,10.9-8.35,20.31-17.18,22.87v.08c2.28,7.18,5.26,17.09,7,23.94h-9.42l-6.8-23.03h-7.21c-1.89,7.68-3.77,15.36-5.66,23.03h-8.4l15.57-64.39Zm10.2,30.46c6.88,0,11.9-4.62,12.68-10.81.83-6.6-3.32-8.5-7.76-8.5h-9.32c-1.62,6.44-3.3,12.88-4.92,19.32h9.32Z"/>
      <path class="cls-1" d="m424.66,235.91h8.4c-4.23,17.67-8.56,35.33-12.78,53h22.97l-2.57,11.39h-31.58l15.57-64.39Z"/>
      <path class="cls-1" d="m462.69,235.91h19.12c14.19,0,19.48,10.07,17.48,26.01-2.49,19.81-15.61,38.39-32.45,38.39h-19.72l15.57-64.39Zm5.89,53.08c11.32,0,19.81-11.06,21.53-24.77,1.9-15.11-5.12-17.01-12.92-17.01h-8.67c-3.49,13.95-6.96,27.82-10.51,41.77h10.56Z"/>
      <path class="cls-1" d="m496.06,294.52c.56-4.46,3.86-8.34,7.06-8.34,2.55,0,4.11,2.64,3.66,6.19-.54,4.29-3.83,8.5-7.03,8.5-2.6,0-4.15-2.72-3.7-6.36Z"/>
      <path class="cls-1" d="m528.13,235.91h19.12c14.19,0,19.48,10.07,17.48,26.01-2.49,19.81-15.61,38.39-32.45,38.39h-19.72l15.57-64.39Zm5.89,53.08c11.32,0,19.81-11.06,21.53-24.77,1.9-15.11-5.12-17.01-12.92-17.01h-8.67c-3.49,13.95-6.96,27.82-10.51,41.77h10.56Z"/>
      <path class="cls-1" d="m579.92,235.91h32.83l-2.56,11.31h-24.43c-1.25,4.79-2.57,9.66-3.82,14.45h23.18l-2.69,11.89h-23.13c-1.35,5.12-2.7,10.24-4.04,15.36h25.08l-2.52,11.39h-33.48l15.57-64.39Z"/>
    </g>
  </g>
</svg>